<?xml version="1.0" encoding="UTF-8"?>
<svg width="300px" height="300px" viewBox="0 0 300 300" version="1.1" xmlns="http://www.w3.org/2000/svg" xmlns:xlink="http://www.w3.org/1999/xlink">
    <title>shopware</title>
    <g id="shopware" stroke="none" stroke-width="1" fill="none" fill-rule="evenodd">
        <path d="M149.762025,18 C182.316772,18 213.580063,29.9753165 237.765506,51.7287975 C238.386076,52.2822785 238.57057,53.1712025 238.218354,53.9259494 C237.882911,54.6639241 237.077848,55.1167722 236.256013,54.9993671 C226.863608,53.7079114 216.733228,53.0537975 206.133228,53.0537975 C167.758544,53.0537975 136.595886,61.6243671 116.033228,77.8094937 C97.6844937,92.2503165 87.9901899,112.225949 87.9901899,135.589557 C87.9901899,161.636709 97.9696203,182.216139 118.46519,198.535443 C136.562342,212.925949 160.663924,222.268038 181.931013,230.519937 C199.793354,237.446835 216.666139,243.987975 228.121519,252.608861 C228.607911,252.961076 228.893038,253.531329 228.876266,254.151899 C228.876266,254.738924 228.574367,255.309177 228.104747,255.661392 C205.277848,272.550949 178.190823,281.473734 149.762025,281.473734 C114.557278,281.473734 81.4658228,267.770886 56.5927215,242.897785 C31.7028481,218.024684 18,184.933228 18,149.745253 C18,114.557278 31.7028481,81.4658228 56.5927215,56.5927215 C81.4825949,31.7028481 114.574051,18 149.762025,18 Z M203.533544,104.125 C230.553481,104.125 252.793354,113.433544 280.282911,136.243671 C280.668671,136.562342 280.903481,137.031962 280.953797,137.535127 C281.322785,141.728165 281.507278,145.837342 281.507278,149.711709 C281.507278,166.249051 278.471519,182.400633 272.483861,197.73038 C272.282595,198.233544 271.880063,198.636076 271.360127,198.82057 C271.158861,198.90443 270.940823,198.937975 270.722785,198.937975 C270.404114,198.937975 270.085443,198.854114 269.800316,198.703165 C254.135127,189.998418 237.077848,183.641772 220.574051,177.486392 C188.556013,165.54462 160.898734,155.229747 160.898734,132.604114 C160.898734,124.536709 164.286709,117.643354 170.676899,112.712342 C178.056646,107.00981 189.109494,104.125 203.533544,104.125 Z" fill="#132042" fill-rule="nonzero"></path>
    </g>
</svg>